# xmcd
#
# Track frame offsets:
#	150
#	18139
#	32347
#	49096
#
# Disc length: 888 seconds
#
# Revision: 2
# Processed by: cddbd v1.5PL3 Copyright (c) Steve Scherf et al.
# Submitted via: EasyCDDAExtractor 6.2.0.3
#
DISCID=20037604
DTITLE=Oyster - Bonnier EP
DYEAR=2002
DGENRE=Pop
TTITLE0=Alone
TTITLE1=I Dare
TTITLE2=Country Song
TTITLE3=Those Days
EXTD=
EXTT0=
EXTT1=
EXTT2=
EXTT3=
PLAYORDER=
